<svg xmlns="http://www.w3.org/2000/svg" version="1.1" xmlns:xlink="http://www.w3.org/1999/xlink" width="1000" height="1000"><metadata><rdf:RDF xmlns:rdf="http://www.w3.org/1999/02/22-rdf-syntax-ns#" xmlns:dc="http://purl.org/dc/elements/1.1/"><rdf:Description><dc:creator>RealFaviconGenerator</dc:creator><dc:source>https://realfavicongenerator.net</dc:source></rdf:Description></rdf:RDF></metadata><style>
    #light-icon {
      display: inline;
    }
    #dark-icon {
      display: none;
    }

    @media (prefers-color-scheme: dark) {
      #light-icon {
        display: none;
      }
      #dark-icon {
        display: inline;
      }
    }
  </style><g id="light-icon"><svg xmlns="http://www.w3.org/2000/svg" version="1.1" xmlns:xlink="http://www.w3.org/1999/xlink" width="1000" height="1000"><g><g transform="matrix(10.638297872340425,0,0,10.638297872340425,10.638297872340445,0)"><svg xmlns="http://www.w3.org/2000/svg" width="92" height="94" viewBox="0 0 92 94" fill="none"><path d="M43.22 46.78H68.22M43.22 46.78L50.94 70.56M43.22 46.78L23 61.47M43.22 46.78L23 32.09M43.22 46.78L50.94 23" stroke="black" stroke-width="2.5"></path><path d="M68.22 66.7803C79.2657 66.7803 88.22 57.826 88.22 46.7803C88.22 35.7346 79.2657 26.7803 68.22 26.7803C57.1743 26.7803 48.22 35.7346 48.22 46.7803C48.22 57.826 57.1743 66.7803 68.22 66.7803Z" stroke="black" stroke-width="6"></path><path d="M50.9399 90.5605C61.9856 90.5605 70.9399 81.6062 70.9399 70.5605C70.9399 59.5149 61.9856 50.5605 50.9399 50.5605C39.8942 50.5605 30.9399 59.5149 30.9399 70.5605C30.9399 81.6062 39.8942 90.5605 50.9399 90.5605Z" stroke="black" stroke-width="6"></path><path d="M23 81.4707C34.0457 81.4707 43 72.5164 43 61.4707C43 50.425 34.0457 41.4707 23 41.4707C11.9543 41.4707 3 50.425 3 61.4707C3 72.5164 11.9543 81.4707 23 81.4707Z" stroke="black" stroke-width="6"></path><path d="M23 52.0898C34.0457 52.0898 43 43.1355 43 32.0898C43 21.0441 34.0457 12.0898 23 12.0898C11.9543 12.0898 3 21.0441 3 32.0898C3 43.1355 11.9543 52.0898 23 52.0898Z" stroke="black" stroke-width="6"></path><path d="M50.9399 43C61.9856 43 70.9399 34.0457 70.9399 23C70.9399 11.9543 61.9856 3 50.9399 3C39.8942 3 30.9399 11.9543 30.9399 23C30.9399 34.0457 39.8942 43 50.9399 43Z" stroke="black" stroke-width="6"></path><path d="M68.22 50.2803C70.153 50.2803 71.72 48.7133 71.72 46.7803C71.72 44.8473 70.153 43.2803 68.22 43.2803C66.287 43.2803 64.72 44.8473 64.72 46.7803C64.72 48.7133 66.287 50.2803 68.22 50.2803Z" fill="#FF0000"></path><path d="M50.9399 74.0605C52.8729 74.0605 54.4399 72.4935 54.4399 70.5605C54.4399 68.6276 52.8729 67.0605 50.9399 67.0605C49.0069 67.0605 47.4399 68.6276 47.4399 70.5605C47.4399 72.4935 49.0069 74.0605 50.9399 74.0605Z" fill="#FF0000"></path><path d="M23 64.9707C24.933 64.9707 26.5 63.4037 26.5 61.4707C26.5 59.5377 24.933 57.9707 23 57.9707C21.067 57.9707 19.5 59.5377 19.5 61.4707C19.5 63.4037 21.067 64.9707 23 64.9707Z" fill="#FF0000"></path><path d="M23 35.5898C24.933 35.5898 26.5 34.0228 26.5 32.0898C26.5 30.1568 24.933 28.5898 23 28.5898C21.067 28.5898 19.5 30.1568 19.5 32.0898C19.5 34.0228 21.067 35.5898 23 35.5898Z" fill="#FF0000"></path><path d="M50.9399 26.5C52.8729 26.5 54.4399 24.933 54.4399 23C54.4399 21.067 52.8729 19.5 50.9399 19.5C49.0069 19.5 47.4399 21.067 47.4399 23C47.4399 24.933 49.0069 26.5 50.9399 26.5Z" fill="#FF0000"></path></svg></g></g></svg></g><g id="dark-icon"><svg xmlns="http://www.w3.org/2000/svg" version="1.1" xmlns:xlink="http://www.w3.org/1999/xlink" width="1000" height="1000"><g clip-path="url(#SvgjsClipPath1008)"><rect width="1000" height="1000" fill="#ffffff"></rect><g transform="matrix(8.51063829787234,0,0,8.51063829787234,108.51063829787233,100)"><svg xmlns="http://www.w3.org/2000/svg" width="92" height="94" viewBox="0 0 92 94" fill="none"><path d="M43.22 46.78H68.22M43.22 46.78L50.94 70.56M43.22 46.78L23 61.47M43.22 46.78L23 32.09M43.22 46.78L50.94 23" stroke="black" stroke-width="2.5"></path><path d="M68.22 66.7803C79.2657 66.7803 88.22 57.826 88.22 46.7803C88.22 35.7346 79.2657 26.7803 68.22 26.7803C57.1743 26.7803 48.22 35.7346 48.22 46.7803C48.22 57.826 57.1743 66.7803 68.22 66.7803Z" stroke="black" stroke-width="6"></path><path d="M50.9399 90.5605C61.9856 90.5605 70.9399 81.6062 70.9399 70.5605C70.9399 59.5149 61.9856 50.5605 50.9399 50.5605C39.8942 50.5605 30.9399 59.5149 30.9399 70.5605C30.9399 81.6062 39.8942 90.5605 50.9399 90.5605Z" stroke="black" stroke-width="6"></path><path d="M23 81.4707C34.0457 81.4707 43 72.5164 43 61.4707C43 50.425 34.0457 41.4707 23 41.4707C11.9543 41.4707 3 50.425 3 61.4707C3 72.5164 11.9543 81.4707 23 81.4707Z" stroke="black" stroke-width="6"></path><path d="M23 52.0898C34.0457 52.0898 43 43.1355 43 32.0898C43 21.0441 34.0457 12.0898 23 12.0898C11.9543 12.0898 3 21.0441 3 32.0898C3 43.1355 11.9543 52.0898 23 52.0898Z" stroke="black" stroke-width="6"></path><path d="M50.9399 43C61.9856 43 70.9399 34.0457 70.9399 23C70.9399 11.9543 61.9856 3 50.9399 3C39.8942 3 30.9399 11.9543 30.9399 23C30.9399 34.0457 39.8942 43 50.9399 43Z" stroke="black" stroke-width="6"></path><path d="M68.22 50.2803C70.153 50.2803 71.72 48.7133 71.72 46.7803C71.72 44.8473 70.153 43.2803 68.22 43.2803C66.287 43.2803 64.72 44.8473 64.72 46.7803C64.72 48.7133 66.287 50.2803 68.22 50.2803Z" fill="#FF0000"></path><path d="M50.9399 74.0605C52.8729 74.0605 54.4399 72.4935 54.4399 70.5605C54.4399 68.6276 52.8729 67.0605 50.9399 67.0605C49.0069 67.0605 47.4399 68.6276 47.4399 70.5605C47.4399 72.4935 49.0069 74.0605 50.9399 74.0605Z" fill="#FF0000"></path><path d="M23 64.9707C24.933 64.9707 26.5 63.4037 26.5 61.4707C26.5 59.5377 24.933 57.9707 23 57.9707C21.067 57.9707 19.5 59.5377 19.5 61.4707C19.5 63.4037 21.067 64.9707 23 64.9707Z" fill="#FF0000"></path><path d="M23 35.5898C24.933 35.5898 26.5 34.0228 26.5 32.0898C26.5 30.1568 24.933 28.5898 23 28.5898C21.067 28.5898 19.5 30.1568 19.5 32.0898C19.5 34.0228 21.067 35.5898 23 35.5898Z" fill="#FF0000"></path><path d="M50.9399 26.5C52.8729 26.5 54.4399 24.933 54.4399 23C54.4399 21.067 52.8729 19.5 50.9399 19.5C49.0069 19.5 47.4399 21.067 47.4399 23C47.4399 24.933 49.0069 26.5 50.9399 26.5Z" fill="#FF0000"></path></svg></g></g><defs><clipPath id="SvgjsClipPath1008"><rect width="1000" height="1000" x="0" y="0" rx="350" ry="350"></rect></clipPath></defs></svg></g></svg>