<?xml version="1.0" encoding="UTF-8" standalone="no"?>
<!DOCTYPE svg PUBLIC "-//W3C//DTD SVG 1.1//EN" "http://www.w3.org/Graphics/SVG/1.1/DTD/svg11.dtd">
<svg width="100%" height="100%" viewBox="0 0 357 172" version="1.1" xmlns="http://www.w3.org/2000/svg" xmlns:xlink="http://www.w3.org/1999/xlink" xml:space="preserve" xmlns:serif="http://www.serif.com/" style="fill-rule:evenodd;clip-rule:evenodd;stroke-linejoin:round;stroke-miterlimit:2;">
    <g id="ne_110m_admin_0_countries" transform="matrix(1,0,0,1,-443,-4)">
        <path d="M593.65,77.32L591.96,78.8L590.12,79L590.01,81.23L588.78,82.23L584.38,81.5L582.78,85.47L581.65,85.96L577.26,86.85L579.25,90.7L577.73,91.27L577.91,92.54L576.54,92.21L575.43,91.42L572.14,91.18L568.47,91.12L567.66,91.37L564.51,90.44L563.25,90.89L562.9,92.2L559.26,91.44L557.8,91.75L557.3,92.72L556.03,93.13L553.11,94.68L552.14,96.26L551.31,96.28L550.7,95.23L547.88,95.16L547.43,93.34L546.35,93.33L546.52,91.1L543.86,89.48L540.06,89.66L537.46,89.98L535.35,87.98L533.53,87.14L530.1,85.56L529.68,85.36L523.98,86.67L524.06,94.85L522.93,94.95L521.37,93.22L519.88,92.59L517.36,93.06L516.38,93.79L516.26,93.25L516.8,92.33L516.38,91.56L513.81,90.8L512.81,88.81L511.59,88.25L511.51,87.53L513.67,87.74L513.75,86.12L515.64,85.76L517.57,86.09L517.97,83.93L517.58,82.56L515.36,82.66L513.48,82.12L510.91,83.1L508.84,83.56L507.72,83.2L507.94,82.06L506.53,80.58L504.88,80.64L503,79.14L504.28,77.46L503.63,77.01L505.4,74.57L507.68,75.86L507.96,74.24L512.53,71.83L516,71.77L520.88,73.31L523.51,74.2L525.86,73.27L529.37,73.22L532.21,74.37L532.85,73.71L535.96,73.81L536.52,72.76L532.93,71.23L535.06,70.15L534.64,69.55L536.77,68.97L535.17,67.46L536.18,66.7L544.48,65.93L545.56,65.38L551.11,64.56L553.1,63.64L557.08,64.12L557.78,66.42L560.1,65.88L562.94,66.63L562.76,67.84L564.89,67.72L570.44,65.63L569.63,66.32L572.46,68.03L577.41,73.66L578.59,72.5L581.65,73.78L584.83,73.21L586.06,73.61L587.12,74.89L588.67,75.32L589.62,76.26L592.47,75.96L593.65,77.32Z" style="fill-opacity:0;fill-rule:nonzero;stroke:white;stroke-opacity:0.5;stroke-width:0.45px;"/>
        <path d="M524.06,94.85L523.98,86.67L529.68,85.36L530.1,85.56L533.53,87.14L535.35,87.98L537.46,89.98L540.06,89.66L543.86,89.48L546.52,91.1L546.35,93.33L547.43,93.34L547.88,95.16L550.7,95.23L551.31,96.28L552.14,96.26L553.11,94.68L556.03,93.13L557.3,92.72L557.96,92.94L556.1,94.38L557.73,95.21L559.31,94.66L561.94,95.83L559.1,97.42L557.41,97.21L556.5,97.26L556.18,96.65L556.64,95.62L553.68,96.13L552.98,97.56L551.92,98.78L550.07,98.68L549.5,99.65L551.12,100.18L551.6,101.83L550.36,104.08L548.68,103.61L547.45,103.59L547.51,102.24L544.56,101.29L542.24,100.2L540.8,99.16L538.26,97.63L537.17,95.34L536.43,94.94L534.03,95.04L533.18,94.59L532.95,92.82L529.96,91.65L528.09,92.94L526.2,93.7L526.56,94.82L524.06,94.85Z" style="fill-opacity:0;fill-rule:nonzero;stroke:white;stroke-opacity:0.5;stroke-width:0.45px;"/>
        <path d="M796.17,28.81L799,27.89L799,29.4L796.57,29.52L796.17,28.81ZM508.84,83.56L507.83,84.88L505.68,85.24L503.48,87.53L505.49,89.63L505.28,91.13L507.7,93.74L506.37,94.63L505.99,95.19L505.01,95.04L503.49,93.7L502.86,93.62L501.47,93.11L500.79,92.2L498.73,91.74L497.38,92.08L496.99,91.67L493.97,90.61L490.71,90.25L488.84,89.87L488.57,90.13L485.74,88.26L483.21,87.42L481.3,86.12L482.91,85.77L484.75,83.91L483.51,83.04L486.78,82.13L486.72,81.65L484.73,82L484.8,81.02L485.94,80.4L488.09,80.24L488.44,79.5L487.95,78.28L488.85,77.12L488.82,76.46L485.55,75.74L484.26,75.77L482.89,74.73L481.19,75.08L478.37,74.3L478.42,73.86L477.63,72.9L475.87,72.8L475.68,72.11L476.24,71.66L474.82,70.4L472.52,70.62L471.85,70.51L471.29,71.01L470.46,70.92L469.91,69.5L469.39,68.77L469.82,68.56L471.61,68.64L472.47,68.15L471.83,67.56L470.34,67.17L470.47,66.77L469.57,66.37L468.18,64.91L468.65,64.32L468.44,63.28L466.27,62.75L465.11,63.01L464.79,62.46L462.46,61.91L461.75,60.6L461.56,59.52L460.49,59.01L461.44,58.31L460.78,56.24L462.36,54.96L462.02,54.58L464.54,53.35L462.22,52.3L466.97,49.47L469.03,48.19L469.86,47.06L466.58,45.54L467.49,44.09L465.49,42.44L466.98,40.54L464.4,38.02L466.45,36.35L463.06,34.87L463.38,33.32L465.17,33.12L468.94,32.23L471.23,31.46L474.87,32.8L480.94,33.32L489.31,35.83L491.02,36.88L491.16,38.36L488.7,39.52L485.08,40.11L475.19,38.43L473.56,38.71L477.17,40.33L477.31,41.36L477.46,43.63L480.31,44.3L482.04,44.88L482.33,43.8L481,42.85L482.41,42.01L487.77,43.39L489.63,42.85L488.14,41.23L493.31,39.06L495.35,39.19L497.42,39.96L498.71,38.44L496.86,37.12L497.95,35.79L496.32,34.41L502.52,35.13L503.79,36.37L500.98,36.64L501,37.87L502.74,38.63L506.17,38.15L506.71,36.74L511.34,35.68L519.07,33.78L520.75,33.89L518.56,35.23L521.31,35.46L522.9,34.71L527.05,34.65L530.34,33.73L532.87,35.06L535.39,33.59L533.07,32.31L534.22,31.58L540.77,32.25L543.84,32.94L551.87,35.48L553.35,34.32L551.1,33.14L551.03,32.67L548.36,32.46L549.09,31.4L547.91,29.68L547.84,28.97L551.93,26.96L553.39,24.94L555.03,24.51L560.9,25.09L561.36,26.33L559.26,28.12L560.64,28.83L561.36,30.38L560.85,33.42L563.3,34.78L562.35,36.26L558,39.4L560.54,39.73L561.42,38.93L563.86,38.36L564.45,37.27L566.37,36.21L565.07,34.95L566.11,33.49L563.68,33.3L563.15,32.07L564.92,29.85L562.04,28.04L566.01,26.54L565.49,24.97L566.6,24.92L567.77,26.15L566.89,28.29L569.26,28.69L568.25,27.09L571.96,26.22L576.56,26.1L580.66,27.37L578.69,25.52L578.47,23.16L582.32,22.71L587.65,22.81L592.46,22.52L590.65,21.36L593.22,19.91L595.77,19.84L600.08,18.74L605.93,18.45L606.67,17.84L612.49,17.64L614.3,18.13L619.28,16.96L623.35,16.99L623.96,16.04L626.08,15.09L631.31,14.18L635.11,14.9L632.1,15.45L637.12,15.79L637.72,16.88L639.74,16.34L646.22,16.37L651.22,17.45L653,18.28L652.45,19.44L649.99,20.09L644.17,21.32L642.5,21.98L645.25,22.29L648.53,22.85L650.53,22.43L651.66,23.85L652.63,23.28L656.18,22.93L663.29,23.29L663.83,24.33L673.09,24.66L673.22,22.97L677.93,23.36L681.46,23.34L685.04,24.51L686.06,25.93L684.75,26.86L687.54,28.6L691.02,29.5L693.16,27.18L696.72,28.17L700.5,27.58L704.79,28.26L706.42,27.64L710.04,27.95L708.44,25.89L711.37,24.93L731.39,26.37L733.28,27.69L739.08,29.38L748.03,28.96L752.45,29.33L754.29,30.24L754.02,31.86L756.75,32.49L759.72,32.04L763.65,31.98L767.83,32.42L772.04,32.17L775.9,34.14L778.64,33.43L776.85,32.02L777.84,31.03L784.91,31.65L789.52,31.52L795.9,32.58L799,33.54L799,42.38L798.98,42.39L796.13,43.36L793.26,43.2L795.26,44.38L796.58,46.2L797.6,46.8L797.86,47.72L797.29,48.31L793.16,47.82L786.96,49.49L784.99,49.75L781.6,51.31L778.38,52.67L777.57,53.68L774.4,52.14L768.62,53.88L767.61,53.06L765.48,54.01L762.51,53.7L761.8,55.16L759.14,57.31L759.22,58.2L761.74,58.7L761.45,61.93L759.39,62.01L758.44,63.86L759.36,64.82L755.48,65.95L754.71,68.48L751.41,69.02L750.75,71.27L747.55,73.34L746.73,71.81L745.78,68.58L744.54,63.65L745.61,60.58L747.48,59.25L747.6,58.22L751.04,57.72L755,54.93L758.82,52.65L762.8,50.88L764.58,47.76L761.89,47.95L760.56,49.77L754.94,52.21L753.12,49.48L747.4,50.23L741.85,53.95L743.68,55.31L738.73,55.89L735.31,56.12L735.47,54.51L732.02,54.18L729.27,55.27L722.5,54.88L715.21,55.54L708.02,59.87L699.53,65.1L703.02,65.38L704.11,66.76L706.27,67.26L707.68,66.15L710.12,66.29L713.32,68.73L713.39,70.62L711.66,72.83L711.47,75.48L710.47,79.02L707.13,82.23L706.39,83.76L703.38,86.35L700.39,88.9L698.96,90.21L696.01,91.51L694.61,91.54L693.22,90.47L690.24,92.09L689.9,92.83L689.59,92.44L689.57,91.31L690.7,91.25L691.02,88.63L690.44,86.73L692.34,85.95L695.03,86.34L696.52,84.19L697.28,81.76L698.14,80.95L699.31,78.95L695.64,79.61L693.72,80.48L690.36,80.48L689.46,78.4L686.83,76.82L682.97,76.11L682.15,73.94L681.38,72.58L680.55,71.62L679.18,69.39L677.23,68.57L673.92,67.91L670.98,67.97L668.22,68.37L666.39,69.48L667.61,70L667.64,71.23L666.4,71.94L664.4,74.29L664.42,75.26L661.3,76.66L658.64,75.83L655.99,76.01L654.83,75.27L653.5,75.03L650.26,76.59L647.34,76.96L645.3,77.51L642.51,77.15L640.45,77.17L639.11,76.04L636.94,74.97L634.72,74.68L631.91,74.97L629.82,75.38L626.67,74.45L626.24,72.79L623.64,72.22L621.63,71.96L619.14,71.04L616.85,73.34L617.75,74.64L615.59,76.19L612.39,75.63L610.18,75.55L608.69,74.51L606.38,74.48L604.45,73.8L601.08,74.84L596.85,76.75L594.52,77.14L593.65,77.32L592.47,75.96L589.62,76.26L588.67,75.32L587.12,74.89L586.06,73.61L584.83,73.21L581.65,73.78L578.59,72.5L577.41,73.66L572.46,68.03L569.63,66.32L570.44,65.63L564.89,67.72L562.76,67.84L562.94,66.63L560.1,65.88L557.78,66.42L557.08,64.12L553.1,63.64L551.11,64.56L545.56,65.38L544.48,65.93L536.18,66.7L535.17,67.46L536.77,68.97L534.64,69.55L535.06,70.15L532.93,71.23L536.52,72.76L535.96,73.81L532.85,73.71L532.21,74.37L529.37,73.22L525.86,73.27L523.51,74.2L520.88,73.31L516,71.77L512.53,71.83L507.96,74.24L507.68,75.86L505.4,74.57L503.63,77.01L504.28,77.46L503,79.14L504.88,80.64L506.53,80.58L507.94,82.06L507.72,83.2L508.84,83.56ZM607.87,6.81L612.67,6.31L616.98,7.42L622.08,9.57L621.53,11.56L616.7,11.84L610.52,11.2L606.84,10.35L605.14,8.76L602.12,8.32L607.87,6.81ZM627.96,10.67L633.58,11.93L632.92,12.83L620.42,13.69L624.47,10.78L626.29,10.53L627.96,10.67ZM707.74,17.64L713.6,17.74L721.61,18.92L719.86,20.56L711.69,20.5L708.02,21.02L703.63,19.58L704.82,18.06L707.74,17.64ZM728.56,19.4L734.12,19.98L731.56,20.85L728.02,20.65L723.9,19.78L724.43,19.06L728.56,19.4ZM710.03,23.78L712.13,22.9L714.9,22.7L718.05,23.54L718.32,24.13L714.96,24.14L710.42,23.89L710.03,23.78ZM499.41,7.77L503.74,7.37L507.11,7.34L507.56,7.94L508.83,7.41L510.92,7.04L514.21,7.53L513.35,7.87L510.38,8.16L508.38,8.33L508.07,8.69L505.48,9.06L503.08,8.53L504.34,7.84L499.41,7.77ZM450.39,65.99L446.31,66.02L443.58,65.77L444.09,64.79L447.15,64.07L449.47,64.46L450.45,64.81L450.21,65.42L450.39,65.99ZM518.61,22.93L523.92,20.99L523.32,19.98L528.28,18.81L535.59,17.39L542.97,16.97L546.77,16.15L551.08,15.86L552.62,16.74L551.13,17.43L543.28,18.53L536.51,19.59L529.62,21.69L526.32,23.86L522.85,25.99L523.3,27.83L527.54,29.65L526.23,29.84L518.98,29.56L518.4,28.57L514.38,27.98L514.06,26.78L516.33,26.3L516.25,25.1L520.65,23.21L518.61,22.93ZM716.79,67.37L717.56,69.5L717.5,71.69L718.42,73.92L720.65,77.85L717.37,77.12L716.01,80.32L718.17,82.59L718.1,84.14L716.42,82.8L714.97,84.52L714.56,82.66L714.81,80.5L714.55,78.11L715.07,76.43L715.17,73.47L713.87,71.29L714.06,68.26L716.11,67.24L715.23,66.21L716.22,65.9L716.79,67.37ZM474.12,84.51L474.7,83.96L476.28,84.44L476.99,84.52L477.28,84.96L477.61,85.03L477.63,85.22L478.71,85.75L480.97,85.62L480.54,86.41L478.12,86.8L475.11,88.08L473.87,87.63L474.36,86.59L471.94,85.94L472.33,85.51L474.45,84.78L474.12,84.51Z" style="fill-opacity:0;stroke:white;stroke-opacity:0.5;stroke-width:0.45px;"/>
        <path d="M479.18,113.91L478.79,114.61L477.99,114.3L477.53,115.78L478.08,116.02L477.52,116.33L477.42,116.91L478.46,116.61L478.52,117.47L477.41,121.02L477.19,120.44L475.96,117.21L476.6,116.48L476.45,116.35L477.03,115.32L477.48,113.65L477.8,113.08L477.86,113.06L478.6,113.07L478.81,112.68L479.4,112.65L479.44,113.56L479.14,113.89L479.18,113.91Z" style="fill-opacity:0;fill-rule:nonzero;stroke:white;stroke-opacity:0.5;stroke-width:0.45px;"/>
        <path d="M479.4,112.65L478.81,112.68L478.6,113.07L477.86,113.06L478.65,111.26L479.75,109.69L479.8,109.62L480.79,109.73L481.16,110.6L479.95,111.43L479.4,112.65Z" style="fill-opacity:0;fill-rule:nonzero;stroke:white;stroke-opacity:0.5;stroke-width:0.45px;"/>
        <path d="M478.46,116.61L477.42,116.91L477.52,116.33L478.08,116.02L477.53,115.78L477.99,114.3L478.79,114.61L478.79,115.96L478.46,116.61Z" style="fill-opacity:0;fill-rule:nonzero;stroke:white;stroke-opacity:0.5;stroke-width:0.45px;"/>
        <path d="M478.79,114.61L479.18,113.91L481.65,114.79L485.99,112.42L486.88,115.12L486.46,115.46L482.02,116.57L484.23,118.79L483.5,119.16L483.13,119.91L481.44,120.21L480.91,121.01L479.95,121.69L477.49,121.34L477.41,121.02L478.52,117.47L478.46,116.61L478.79,115.96L478.79,114.61Z" style="fill-opacity:0;fill-rule:nonzero;stroke:white;stroke-opacity:0.5;stroke-width:0.45px;"/>
        <path d="M514.33,132.67L514.73,132.56L514.81,133.17L516.55,132.82L518.38,132.88L519.72,132.94L521.24,131.44L522.89,130.02L524.29,128.66L524.71,129.41L525.01,131.16L523.88,131.17L523.7,132.62L524.09,132.92L523.09,133.36L523.08,134.27L522.44,135.18L522.38,136.08L521.93,136.55L515.27,135.43L514.42,133.18L514.33,132.67Z" style="fill-opacity:0;fill-rule:nonzero;stroke:white;stroke-opacity:0.5;stroke-width:0.45px;"/>
        <path d="M512.63,131.54L512.48,129.93L513.08,128.76L513.68,128.53L514.36,129.22L514.39,130.52L513.91,131.82L513.3,131.98L512.63,131.54Z" style="fill-opacity:0;fill-rule:nonzero;stroke:white;stroke-opacity:0.5;stroke-width:0.45px;"/>
        <path d="M506.34,119.97L506.81,120.95L506.61,121.45L507.32,123.12L505.75,123.18L505.2,122.12L503.23,121.91L504.85,119.78L506.34,119.97Z" style="fill-opacity:0;fill-rule:nonzero;stroke:white;stroke-opacity:0.5;stroke-width:0.45px;"/>
        <path d="M486.88,115.12L485.99,112.42L490.9,110.12L491.73,107.44L491.53,105.82L492.74,105.27L493.87,103.89L494.83,103.54L497.41,103.83L498.18,104.39L499.25,104.02L500.68,106.66L502.14,107.33L502.3,108.62L501.19,109.39L500.67,111.12L502.21,113.23L504.93,114.44L506.07,116.12L505.7,117.73L506.41,117.73L506.43,118.91L507.66,120.08L506.34,119.97L504.85,119.78L503.23,121.91L499.11,121.73L492.86,117.28L489.55,115.72L486.88,115.12Z" style="fill-opacity:0;fill-rule:nonzero;stroke:white;stroke-opacity:0.5;stroke-width:0.45px;"/>
        <path d="M522.38,136.08L522.44,135.18L523.08,134.27L523.09,133.36L524.09,132.92L523.7,132.62L523.88,131.17L525.01,131.16L526.01,132.68L527.24,133.48L528.87,133.77L530.18,134.18L531.18,135.45L531.78,136.18L532.57,136.46L532.57,136.96L531.76,138.28L531.41,138.9L530.48,139.61L529.65,141.13L528.64,141.01L528.18,141.54L527.83,142.67L528.1,144.15L527.89,144.42L526.87,144.41L525.48,145.24L525.27,146.32L524.76,146.79L523.38,146.77L522.52,147.33L522.53,148.22L521.45,148.84L520.23,148.63L518.75,149.38L517.72,149.5L517,147.95L515.27,144.3L521.92,142.08L523.39,137.65L522.38,136.08ZM524.71,129.41L524.29,128.66L524.94,127.9L525.21,128.09L525,129.01L524.71,129.41Z" style="fill-opacity:0;stroke:white;stroke-opacity:0.5;stroke-width:0.45px;"/>
        <path d="M627.4,159.4L626.87,156.72L628.29,154.88L631.16,154.46L633.23,154.77L635.06,155.64L636.07,154.12L638.03,154.93L638.55,156.41L638.27,159.07L634.55,160.77L635.52,162.11L633.19,162.28L631.27,163.17L629.42,162.84L628.52,161.69L627.4,159.4Z" style="fill-opacity:0;fill-rule:nonzero;stroke:white;stroke-opacity:0.5;stroke-width:0.45px;"/>
        <path d="M633.23,154.77L631.16,154.46L628.29,154.88L626.87,156.72L627.4,159.4L625.41,158.38L623.51,158.42L623.84,156.68L621.88,156.69L621.71,159.13L620.51,162.37L619.79,164.33L619.94,165.93L621.39,166L622.29,168.03L622.68,169.94L623.92,171.21L625.26,171.47L626.41,172.62L625.69,173.53L624.23,173.8L624.05,172.66L622.24,171.69L621.86,172.08L620.98,171.23L620.6,170.14L619.42,168.88L618.35,167.83L617.99,169.14L617.57,167.9L617.81,166.52L618.46,164.4L619.53,162.12L620.75,160.05L619.89,158.03L619.92,157L619.67,155.76L618.19,154L617.66,152.89L618.42,152.48L619.24,150.55L618.33,149.09L616.92,147.47L615.85,145.53L616.79,145.12L617.8,142.73L619.36,142.63L620.65,141.67L621.92,141.15L622.88,141.84L623.01,143.17L624.51,143.27L623.96,145.61L624.02,147.59L626.35,146.27L627.02,146.66L628.31,146.6L628.76,145.83L630.44,145.98L632.12,147.78L632.26,149.97L634.06,151.9L633.96,153.78L633.23,154.77Z" style="fill-opacity:0;fill-rule:nonzero;stroke:white;stroke-opacity:0.5;stroke-width:0.45px;"/>
        <path d="M638.03,154.93L636.07,154.12L635.06,155.64L633.23,154.77L633.96,153.78L634.06,151.9L632.26,149.97L632.12,147.78L630.44,145.98L628.76,145.83L628.31,146.6L627.02,146.66L626.35,146.27L624.02,147.59L623.96,145.61L624.51,143.27L623.01,143.17L622.88,141.84L621.92,141.15L622.4,140.34L624.28,138.9L624.48,139.42L625.66,139.48L625.33,136.94L626.48,136.62L627.77,138.37L628.77,140.38L631.5,140.4L632.36,142.33L630.94,142.91L630.3,143.71L632.96,145.03L634.8,147.65L636.2,149.61L637.88,151.15L638.43,152.72L638.03,154.93Z" style="fill-opacity:0;fill-rule:nonzero;stroke:white;stroke-opacity:0.5;stroke-width:0.45px;"/>
        <path d="M621.92,141.15L620.65,141.67L619.36,142.63L617.8,142.73L616.79,145.12L615.85,145.53L616.92,147.47L618.33,149.09L619.24,150.55L618.42,152.48L617.66,152.89L618.19,154L619.67,155.76L619.92,157L619.89,158.03L620.75,160.05L619.53,162.12L618.46,164.4L618.25,162.75L618.93,161.05L618.18,159.74L618.36,157.33L617.46,156.18L616.74,153.52L616.34,150.72L615.38,148.89L613.92,150L611.4,151.58L610.16,151.38L608.79,150.86L609.55,148.12L609.09,146.04L607.35,143.48L607.62,142.69L606.32,142.4L604.75,140.59L604.61,138.81L605.38,139.15L605.42,137.56L606.52,137.03L606.28,136.09L606.78,135.33L606.87,133.04L608.6,133.54L609.59,131.72L609.7,130.64L610.93,128.78L610.86,127.51L613.73,125.98L615.31,126.38L615.13,125.01L615.91,124.61L615.74,123.77L617.04,123.6L617.78,124.91L618.75,125.44L618.81,127.13L618.72,128.96L616.62,130.81L616.36,133.44L618.7,133.07L619.23,135.11L620.63,135.54L619.98,137.38L621.63,138.22L622.59,138.62L624.22,137.98L624.28,138.9L622.4,140.34L621.92,141.15Z" style="fill-opacity:0;fill-rule:nonzero;stroke:white;stroke-opacity:0.5;stroke-width:0.45px;"/>
        <path d="M631.27,163.17L633.19,162.28L635.52,162.11L634.55,160.77L638.27,159.07L638.55,156.41L638.03,154.93L638.43,152.72L637.88,151.15L636.2,149.61L634.8,147.65L632.96,145.03L630.3,143.71L630.94,142.91L632.36,142.33L631.5,140.4L628.77,140.38L627.77,138.37L626.48,136.62L627.67,136.08L629.44,136.09L631.59,135.83L633.48,134.65L634.55,135.48L636.57,135.89L636.22,137.16L637.28,138.06L639.51,138.64L636.55,140.54L634.7,142.63L634.22,144.17L635.91,146.5L637.99,149.4L640,150.77L641.34,152.55L642.36,156.65L642.06,160.55L640.21,162.01L637.67,163.44L635.86,165.29L633.1,167.35L632.3,165.93L632.92,164.43L631.27,163.17Z" style="fill-opacity:0;fill-rule:nonzero;stroke:white;stroke-opacity:0.5;stroke-width:0.45px;"/>
        <path d="M689.59,92.44L689.9,92.83L689.05,92.69L688.09,93.44L687.43,94.2L687.51,95.79L686.37,96.28L685.97,96.67L685.14,97.33L683.66,97.69L682.7,98.29L682.63,99.25L682.37,99.49L683.25,99.85L684.51,100.82L684.19,101.36L683.25,101.5L681.68,101.61L680.82,102.61L679.83,102.53L679.69,102.73L678.61,102.31L678.34,102.73L677.69,102.91L677.62,102.5L677.04,102.29L676.45,101.94L677.05,100.96L677.58,100.7L677.38,100.3L677.94,99.1L677.8,98.74L676.5,98.5L675.46,97.91L677.26,96.48L679.7,95.29L681.23,93.72L682.28,94.41L684.2,94.5L683.85,93.33L687.27,92.37L688.15,91.13L689.59,92.44Z" style="fill-opacity:0;fill-rule:nonzero;stroke:white;stroke-opacity:0.5;stroke-width:0.45px;"/>
        <path d="M679.69,102.73L679.83,102.53L680.82,102.61L681.68,101.61L683.25,101.5L684.19,101.36L684.51,100.82L686.42,103.44L686.97,104.88L686.99,107.43L686.15,108.65L684.15,109.07L682.37,109.99L680.38,110.18L680.13,108.98L680.54,107.31L679.56,105.01L681.21,104.63L679.69,102.73Z" style="fill-opacity:0;fill-rule:nonzero;stroke:white;stroke-opacity:0.5;stroke-width:0.45px;"/>
        <path d="M594.52,77.14L596.85,76.75L601.08,74.84L604.45,73.8L606.38,74.48L608.69,74.51L610.18,75.55L612.39,75.63L615.59,76.19L617.75,74.64L616.85,73.34L619.14,71.04L621.63,71.96L623.64,72.22L626.24,72.79L626.67,74.45L629.82,75.38L631.91,74.97L634.72,74.68L636.94,74.97L639.11,76.04L640.45,77.17L642.51,77.15L645.3,77.51L647.34,76.96L650.26,76.59L653.5,75.03L654.83,75.27L655.99,76.01L658.64,75.83L657.56,77.5L655.99,79.71L656.56,80.62L657.82,80.34L660.01,80.68L661.71,79.87L663.49,80.57L665.5,82.12L665.25,82.91L663.5,82.66L660.28,82.96L658.72,83.59L657.1,85.05L653.72,85.91L651.51,87.09L649.23,86.64L647.99,86.44L646.82,87.87L647.53,88.72L647.89,89.45L646.34,90.19L644.75,91.38L642.16,92.16L638.83,92.25L635.25,93.02L632.67,94.21L631.69,93.52L629.01,93.52L625.73,92.17L623.54,91.84L620.59,92.15L616.02,91.65L613.57,91.7L612.27,90.39L611.26,88.35L609.89,88.1L607.22,86.72L604.23,86.41L601.6,86.03L600.8,85.07L601.65,82.48L600.12,80.69L596.96,79.86L595.1,78.68L594.52,77.14Z" style="fill-opacity:0;fill-rule:nonzero;stroke:white;stroke-opacity:0.5;stroke-width:0.45px;"/>
        <path d="M615.74,123.77L615.91,124.61L615.13,125.01L615.31,126.38L613.73,125.98L610.86,127.51L610.93,128.78L609.7,130.64L609.59,131.72L608.6,133.54L606.87,133.04L606.78,135.33L606.28,136.09L606.52,137.03L605.42,137.56L604.26,134.04L603.65,134.05L603.28,135.46L602.07,134.31L602.75,133.05L603.75,132.92L604.77,131.05L603.49,130.67L601.43,130.7L599.32,130.4L599.13,128.86L598.07,128.75L596.31,127.79L595.53,129.29L597.13,130.47L595.75,131.29L595.25,132.1L596.62,132.7L596.24,134.03L597.01,135.7L597.35,137.52L597.04,138.33L595.53,138.3L592.8,138.76L592.92,140.43L591.74,141.74L588.55,143.24L586.07,145.84L584.4,147.24L582.19,148.69L582.19,149.71L581.09,150.26L579.09,151.05L578.05,151.17L577.39,152.86L577.85,155.74L577.97,157.58L577.03,159.69L577.02,163.45L575.87,163.56L574.86,165.25L575.54,165.98L573.52,166.61L572.77,168.12L571.88,168.76L569.78,166.69L568.75,163.58L567.9,161.35L567.13,160.3L565.95,158.17L565.4,155.4L565.02,154.01L563,150.97L562.08,146.67L561.42,143.84L561.43,141.15L561,139.07L557.77,140.4L556.21,140.14L553.31,137.45L554.38,136.65L553.72,135.78L551.12,133.9L552.6,132.42L557.48,132.42L557.04,130.52L555.79,129.4L555.54,127.69L554.09,126.69L556.53,124.37L559.11,124.54L561.43,122.22L562.82,119.97L564.97,117.74L564.93,116.16L566.82,114.88L565.03,113.78L564.26,112.28L563.48,110.34L564.57,109.39L567.93,109.93L570.4,109.6L572.54,107.73L574.92,110.33L574.7,112.14L575.58,113.28L575.51,114.41L573.92,114.11L574.54,116.55L576.72,117.96L579.8,119.51L578.39,120.51L577.53,122.59L579.68,123.42L581.77,124.51L584.66,125.76L587.7,126.04L588.97,127.17L590.69,127.38L593.35,127.9L595.2,127.86L595.45,126.98L595.16,125.58L595.33,124.62L596.69,124.15L596.87,125.9L596.92,126.34L598.93,127.19L600.33,126.84L602.2,126.99L604.01,126.92L604.16,125.56L603.26,124.85L605.05,124.58L607.07,122.93L609.62,121.52L611.48,122.06L613.06,121.13L614.1,122.5L613.35,123.44L615.74,123.77Z" style="fill-opacity:0;fill-rule:nonzero;stroke:white;stroke-opacity:0.5;stroke-width:0.45px;"/>
        <path d="M605.42,137.56L605.38,139.15L604.61,138.81L604.75,140.59L604.12,139.44L603.99,138.31L603.57,137.24L602.64,135.95L600.6,135.86L600.8,136.78L600.11,138.01L599.16,137.56L598.84,137.96L598.21,137.72L597.35,137.52L597.01,135.7L596.24,134.03L596.62,132.7L595.25,132.1L595.75,131.29L597.13,130.47L595.53,129.29L596.31,127.79L598.07,128.75L599.13,128.86L599.32,130.4L601.43,130.7L603.49,130.67L604.77,131.05L603.75,132.92L602.75,133.05L602.07,134.31L603.28,135.46L603.65,134.05L604.26,134.04L605.42,137.56Z" style="fill-opacity:0;fill-rule:nonzero;stroke:white;stroke-opacity:0.5;stroke-width:0.45px;"/>
        <path d="M603.26,124.85L604.16,125.56L604.01,126.92L602.2,126.99L600.33,126.84L598.93,127.19L596.92,126.34L596.87,125.9L598.34,124.25L599.54,123.69L601.12,124.2L602.29,124.26L603.26,124.85Z" style="fill-opacity:0;fill-rule:nonzero;stroke:white;stroke-opacity:0.5;stroke-width:0.45px;"/>
        <path d="M595.33,124.62L595.16,125.58L595.45,126.98L595.2,127.86L593.35,127.9L590.69,127.38L588.97,127.17L587.7,126.04L584.66,125.76L581.77,124.51L579.68,123.42L577.53,122.59L578.39,120.51L579.8,119.51L580.72,118.98L582.49,119.66L584.73,121.1L585.98,121.42L586.72,122.48L588.44,122.92L590.24,123.9L592.75,124.4L595.33,124.62Z" style="fill-opacity:0;fill-rule:nonzero;stroke:white;stroke-opacity:0.5;stroke-width:0.45px;"/>
        <path d="M572.54,107.73L570.4,109.6L567.93,109.93L564.57,109.39L563.48,110.34L564.26,112.28L565.03,113.78L566.82,114.88L564.93,116.16L564.97,117.74L562.82,119.97L561.43,122.22L559.11,124.54L556.53,124.37L554.09,126.69L555.54,127.69L555.79,129.4L557.04,130.52L557.48,132.42L552.6,132.42L551.12,133.9L549.5,133.34L548.84,131.74L547.13,130.05L543.04,130.47L539.44,130.51L536.32,130.82L537.15,128.25L540.35,127.1L540.17,126.08L539.11,125.72L539.05,123.77L536.93,122.8L536.04,121.46L534.94,120.29L538.65,121.42L540.87,121.09L542.19,121.37L542.64,120.89L544.19,121.08L547.07,120.16L547.15,118.28L548.38,117.02L550.03,117.02L550.27,116.4L551.97,116.12L552.79,116.32L553.65,115.7L553.53,114.37L554.47,113.03L555.88,112.47L555.01,111L557.12,111.07L557.73,110.27L557.64,109.42L558.74,108.49L558.49,107.39L557.96,106.45L559.26,105.48L561.64,105.02L564.18,104.76L565.31,104.35L566.6,104.1L568.24,105.14L568.89,106.84L572.54,107.73Z" style="fill-opacity:0;fill-rule:nonzero;stroke:white;stroke-opacity:0.5;stroke-width:0.45px;"/>
        <path d="M547.45,103.59L548.68,103.61L550.36,104.08L551.03,104.35L552.64,103.63L553.39,104.06L554.1,103.05L555.43,103.09L555.77,102.77L556,101.87L556.96,101.1L558.16,101.61L557.91,102.28L558.58,102.39L558.38,104.25L559.26,104.98L560.03,104.51L561.01,104.29L562.39,103.3L563.92,103.46L566.21,103.47L566.6,104.1L565.31,104.35L564.18,104.76L561.64,105.02L559.26,105.48L557.96,106.45L558.49,107.39L558.74,108.49L557.64,109.42L557.73,110.27L557.12,111.07L555.01,111L555.88,112.47L554.47,113.03L553.53,114.37L553.65,115.7L552.79,116.32L551.97,116.12L550.27,116.4L550.03,117.02L548.38,117.02L547.15,118.28L547.07,120.16L544.19,121.08L542.64,120.89L542.19,121.37L540.87,121.09L538.65,121.42L534.94,120.29L536.95,118.28L536.77,116.86L535.09,116.48L534.91,115.07L534.19,113.3L535.14,112.09L534.17,111.76L534.78,110.15L535.68,107.39L537.94,108.23L539.62,107.93L540.08,106.93L541.83,106.6L543.08,105.92L543.52,104.15L545.39,103.72L545.74,102.93L546.78,103.52L547.45,103.59Z" style="fill-opacity:0;fill-rule:nonzero;stroke:white;stroke-opacity:0.5;stroke-width:0.45px;"/>
        <path d="M550.36,104.08L551.6,101.83L551.12,100.18L549.5,99.65L550.07,98.68L551.92,98.78L552.98,97.56L553.68,96.13L556.64,95.62L556.18,96.65L556.5,97.26L557.41,97.21L556.6,97.89L554.19,97.52L553.98,98.8L556.38,98.62L559.12,99.34L563.31,99.01L563.88,101.06L564.6,100.84L565.95,101.34L565.87,102.2L566.21,103.47L563.92,103.46L562.39,103.3L561.01,104.29L560.03,104.51L559.26,104.98L558.38,104.25L558.58,102.39L557.91,102.28L558.16,101.61L556.96,101.1L556,101.87L555.77,102.77L555.43,103.09L554.1,103.05L553.39,104.06L552.64,103.63L551.03,104.35L550.36,104.08Z" style="fill-opacity:0;fill-rule:nonzero;stroke:white;stroke-opacity:0.5;stroke-width:0.45px;"/>
        <path d="M557.3,92.72L557.8,91.75L559.26,91.44L562.9,92.2L563.25,90.89L564.51,90.44L567.66,91.37L568.47,91.12L572.14,91.18L575.43,91.42L576.54,92.21L577.91,92.54L577.6,93.04L574.11,94.24L573.31,95.12L570.47,95.38L569.63,96.8L567.29,96.5L565.76,96.93L563.64,97.98L563.94,98.5L563.31,99.01L559.12,99.34L556.38,98.62L553.98,98.8L554.19,97.52L556.6,97.89L557.41,97.21L559.1,97.42L561.94,95.83L559.31,94.66L557.73,95.21L556.1,94.38L557.96,92.94L557.3,92.72Z" style="fill-opacity:0;fill-rule:nonzero;stroke:white;stroke-opacity:0.5;stroke-width:0.45px;"/>
        <path d="M516.38,93.79L517.36,93.06L519.88,92.59L521.37,93.22L522.93,94.95L524.06,94.85L526.56,94.82L526.2,93.7L528.09,92.94L529.96,91.65L532.95,92.82L533.18,94.59L534.03,95.04L536.43,94.94L537.17,95.34L538.26,97.63L540.8,99.16L542.24,100.2L544.56,101.29L547.51,102.24L547.45,103.59L546.78,103.52L545.74,102.93L545.39,103.72L543.52,104.15L543.08,105.92L541.83,106.6L540.08,106.93L539.62,107.93L537.94,108.23L535.68,107.39L535.49,105.52L533.84,105.44L531.3,103.48L529.53,103.24L527.08,102.12L525.51,101.91L524.53,102.32L523.05,102.26L521.47,103.53L519.53,103.96L519.11,102.39L519.44,100.07L517.71,99.32L518.28,97.8L516.8,97.67L517.3,95.8L519.39,96.35L521.33,95.64L519.72,94.31L519.08,93.04L517.3,93.61L517.07,95.23L516.38,93.79Z" style="fill-opacity:0;fill-rule:nonzero;stroke:white;stroke-opacity:0.5;stroke-width:0.45px;"/>
        <path d="M507.66,120.08L506.43,118.91L506.41,117.73L505.7,117.73L506.07,116.12L504.93,114.44L502.21,113.23L500.67,111.12L501.19,109.39L502.3,108.62L502.14,107.33L500.68,106.66L499.25,104.02L498.03,102.24L498.47,101.56L497.78,99.01L499.29,98.38L499.65,99.22L500.76,100.24L502.29,100.54L503.09,100.47L505.7,98.84L506.53,98.67L507.19,99.32L506.42,100.42L507.81,101.58L508.36,101.47L509.06,103.1L511.16,103.57L512.7,104.68L515.85,105.06L519.31,104.47L519.53,103.96L521.47,103.53L523.05,102.26L524.53,102.32L525.51,101.91L527.08,102.12L529.53,103.24L531.3,103.48L533.84,105.44L535.49,105.52L535.68,107.39L534.78,110.15L534.17,111.76L535.14,112.09L534.19,113.3L534.91,115.07L535.09,116.48L536.77,116.86L536.95,118.28L534.94,120.29L536.04,121.46L536.93,122.8L539.05,123.77L539.11,125.72L540.17,126.08L540.35,127.1L537.15,128.25L536.32,130.82L532.15,130.15L529.73,129.64L527.23,129.36L526.29,126.64L525.22,126.25L523.52,126.64L521.29,127.71L518.58,126.98L516.34,125.28L514.2,124.64L512.72,122.54L511.09,119.59L509.9,119.95L508.49,119.21L507.66,120.08Z" style="fill-opacity:0;fill-rule:nonzero;stroke:white;stroke-opacity:0.5;stroke-width:0.45px;"/>
        <path d="M479.18,113.91L479.14,113.89L479.44,113.56L479.4,112.65L479.95,111.43L481.16,110.6L480.79,109.73L479.8,109.62L479.59,107.92L480.13,107.01L480.73,106.52L481.32,106.04L481.44,104.8L482.16,105.23L484.61,104.62L485.78,105.03L487.61,105.03L490.16,104.19L491.35,104.23L493.87,103.89L492.74,105.27L491.53,105.82L491.73,107.44L490.9,110.12L485.99,112.42L481.65,114.79L479.18,113.91Z" style="fill-opacity:0;fill-rule:nonzero;stroke:white;stroke-opacity:0.5;stroke-width:0.45px;"/>
        <path d="M503.09,100.47L502.29,100.54L501.38,99.25L501.39,98.91L500.41,98.92L499.75,98.32L499.29,98.38L498.42,97.74L496.77,97.18L496.99,96.11L496.61,95.33L499.69,94.98L500.15,95.56L500.99,95.95L500.55,96.5L501.73,97.26L501.1,97.97L502.04,98.57L503.04,98.93L503.09,100.47Z" style="fill-opacity:0;fill-rule:nonzero;stroke:white;stroke-opacity:0.5;stroke-width:0.45px;"/>
        <path d="M462.46,61.91L464.79,62.46L465.11,63.01L466.27,62.75L468.44,63.28L468.65,64.32L468.18,64.91L469.57,66.37L470.47,66.77L470.34,67.17L471.83,67.56L472.47,68.15L471.61,68.64L469.82,68.56L469.39,68.77L469.91,69.5L470.46,70.92L468.56,71.05L467.87,71.54L467.73,72.66L466.85,72.44L464.85,72.55L464.27,72.03L463.44,72.42L462.6,72.09L460.86,72.05L458.38,71.52L456.14,71.34L454.43,71.39L453.21,71.99L452.15,72.08L452.11,71.09L451.43,70.07L452.75,69.61L452.77,68.73L452.15,67.89L452.06,66.91L454.2,66.92L456.61,66.09L457.12,64.84L458.94,64.13L458.73,63.13L460.08,62.76L462.46,61.91Z" style="fill-opacity:0;fill-rule:nonzero;stroke:white;stroke-opacity:0.5;stroke-width:0.45px;"/>
        <path d="M470.46,70.92L471.29,71.01L471.85,70.51L472.52,70.62L474.82,70.4L476.24,71.66L475.68,72.11L475.87,72.8L477.63,72.9L478.42,73.86L478.37,74.3L481.19,75.08L482.89,74.73L484.26,75.77L485.55,75.74L488.82,76.46L488.85,77.12L487.95,78.28L488.44,79.5L488.09,80.24L485.94,80.4L484.8,81.02L484.73,82L482.96,82.18L481.48,82.9L479.41,83.01L477.5,83.84L477.61,85.03L477.28,84.96L476.99,84.52L476.28,84.44L474.7,83.96L474.12,84.51L473.81,84.27L470.37,83.71L470.21,82.88L468.16,83.15L467.34,84.37L465.62,86.01L464.62,85.63L463.57,85.99L462.58,85.58L463.14,85.34L463.53,84.58L464.14,83.87L463.98,83.48L464.44,83.3L464.66,83.61L465.97,83.67L466.55,83.51L466.14,83.28L466.3,82.95L465.52,82.39L465.2,81.46L464.4,81.1L464.56,80.35L463.55,79.75L462.64,79.67L461.01,78.98L459.53,79.2L459.01,79.52L458.07,79.52L457.51,80.04L455.88,80.25L455.12,80.6L454.09,80.05L452.67,80.05L451.3,79.8L450.34,80.27L450.19,79.68L448.96,79.08L449.39,78.18L450,77.61L450.49,77.74L449.92,76.74L451.93,74.9L453.03,74.64L453.27,74.02L452.15,72.08L453.21,71.99L454.43,71.39L456.14,71.34L458.38,71.52L460.86,72.05L462.6,72.09L463.44,72.42L464.27,72.03L464.85,72.55L466.85,72.44L467.73,72.66L467.87,71.54L468.56,71.05L470.46,70.92Z" style="fill-opacity:0;fill-rule:nonzero;stroke:white;stroke-opacity:0.5;stroke-width:0.45px;"/>
        <path d="M459.01,79.52L459.53,79.2L461.01,78.98L462.64,79.67L463.55,79.75L464.56,80.35L464.4,81.1L465.2,81.46L465.52,82.39L466.3,82.95L466.14,83.28L466.55,83.51L465.97,83.67L464.66,83.61L464.44,83.3L463.98,83.48L464.14,83.87L463.53,84.58L463.14,85.34L462.58,85.58L462.19,84.57L462.42,83.62L462.35,82.65L461.07,81.33L460.37,80.4L459.68,79.74L459.01,79.52Z" style="fill-opacity:0;fill-rule:nonzero;stroke:white;stroke-opacity:0.5;stroke-width:0.45px;"/>
        <path d="M462.58,85.58L463.57,85.99L464.62,85.63L465.62,86.01L465.67,86.58L464.6,87.06L463.92,86.85L463.3,89.53L462,89.3L460.39,88.49L457.78,89.01L456.68,89.57L453.42,89.45L451.72,89.11L450.86,89.27L450.22,88.36L449.82,87.97L450.33,87.6L449.78,87.32L449.09,87.82L447.8,87.18L447.62,86.26L446.27,85.74L446.02,85.04L444.82,84.16L446.6,83.75L447.94,82.24L448.99,80.74L450.34,80.27L451.3,79.8L452.67,80.05L454.09,80.05L455.12,80.6L455.88,80.25L457.51,80.04L458.07,79.52L459.01,79.52L459.68,79.74L460.37,80.4L461.07,81.33L462.35,82.65L462.42,83.62L462.19,84.57L462.58,85.58Z" style="fill-opacity:0;fill-rule:nonzero;stroke:white;stroke-opacity:0.5;stroke-width:0.45px;"/>
        <path d="M458.73,63.13L458.94,64.13L457.12,64.84L456.61,66.09L454.2,66.92L452.06,66.91L451.52,66.22L450.39,65.99L450.21,65.42L450.45,64.81L449.47,64.46L447.15,64.07L446.67,62.21L449.21,61.53L452.93,61.67L455.11,61.45L455.42,61.92L456.6,62.06L458.73,63.13Z" style="fill-opacity:0;fill-rule:nonzero;stroke:white;stroke-opacity:0.5;stroke-width:0.45px;"/>
        <path d="M460.49,59.01L461.56,59.52L461.75,60.6L462.46,61.91L460.08,62.76L458.73,63.13L456.6,62.06L455.42,61.92L455.11,61.45L452.93,61.67L449.21,61.53L446.67,62.21L446.75,60.54L447.84,59.15L449.93,58.39L451.69,60.05L453.47,60.01L453.89,58.3L455.78,57.91L456.75,58.18L458.66,59.01L460.49,59.01Z" style="fill-opacity:0;fill-rule:nonzero;stroke:white;stroke-opacity:0.5;stroke-width:0.45px;"/>
        <path d="M462.02,54.58L462.36,54.96L460.78,56.24L461.44,58.31L460.49,59.01L458.66,59.01L456.75,58.18L455.78,57.91L453.89,58.3L454.15,57L453.34,57.28L451.93,56.49L451.74,55.21L454.54,54.6L457.33,54.28L459.74,54.64L462.02,54.58Z" style="fill-opacity:0;fill-rule:nonzero;stroke:white;stroke-opacity:0.5;stroke-width:0.45px;"/>
        <path d="M450.22,88.36L450.86,89.27L451.72,89.11L453.42,89.45L456.68,89.57L457.78,89.01L460.39,88.49L462,89.3L463.3,89.53L462.15,90.45L461.34,92.03L462.06,93.3L460.15,93L457.89,93.7L457.87,94.8L455.85,95.01L454.29,94.24L452.52,94.84L450.88,94.78L450.72,93.31L449.61,92.6L449.97,92.29L449.73,92.03L450.11,91.32L450.95,90.63L449.88,89.67L449.68,88.86L450.22,88.36Z" style="fill-opacity:0;fill-rule:nonzero;stroke:white;stroke-opacity:0.5;stroke-width:0.45px;"/>
        <path d="M499.25,104.02L498.18,104.39L497.41,103.83L494.83,103.54L493.87,103.89L491.35,104.23L490.16,104.19L487.61,105.03L485.78,105.03L484.61,104.62L482.16,105.23L481.44,104.8L481.32,106.04L480.73,106.52L480.13,107.01L479.32,106L480.16,105.17L478.8,105.36L476.95,104.85L475.43,106.13L472.06,106.37L470.27,105.19L467.88,105.11L467.37,106.03L465.83,106.29L463.69,105.11L461.27,105.15L459.96,102.95L458.34,101.72L459.42,99.99L458.01,98.94L460.47,96.82L463.88,96.73L464.82,95.04L469.04,95.34L471.7,93.9L474.29,93.27L477.96,93.22L481.82,94.79L485,95.64L487.59,95.3L489.49,95.5L492.11,94.34L494.47,94.24L496.61,95.33L496.99,96.11L496.77,97.18L498.42,97.74L499.29,98.38L497.78,99.01L498.47,101.56L498.03,102.24L499.25,104.02ZM457.89,93.7L460.15,93L462.06,93.3L462.32,94.15L464.26,94.87L463.85,95.41L461.22,95.53L460.28,96.22L458.43,97.41L457.73,96.38L457.76,95.92L458.29,95.67L458.97,94.28L457.89,93.7Z" style="fill-opacity:0;stroke:white;stroke-opacity:0.5;stroke-width:0.45px;"/>
        <path d="M581.3,169.74L580.96,172.05L580.03,172.68L578.11,173.18L577.05,171.42L576.66,168.23L577.66,164.64L579.19,165.87L580.22,167.43L581.3,169.74Z" style="fill-opacity:0;fill-rule:nonzero;stroke:white;stroke-opacity:0.5;stroke-width:0.45px;"/>
        <path d="M642.67,146.08L640.85,145.39L640.79,143.48L641.88,142.48L644.3,141.86L645.58,141.91L646.07,142.75L645.1,143.73L644.59,145.01L642.67,146.08ZM577.91,92.54L577.73,91.27L579.25,90.7L577.26,86.85L581.65,85.96L582.78,85.47L584.38,81.5L588.78,82.23L590.01,81.23L590.12,79L591.96,78.8L593.65,77.32L594.52,77.14L595.1,78.68L596.96,79.86L600.12,80.69L601.65,82.48L600.8,85.07L601.6,86.03L604.23,86.41L607.22,86.72L609.89,88.1L611.26,88.35L612.27,90.39L613.57,91.7L616.02,91.65L620.59,92.15L623.54,91.84L625.73,92.17L629.01,93.52L631.69,93.52L632.67,94.21L635.25,93.02L638.83,92.25L642.16,92.16L644.75,91.38L646.34,90.19L647.89,89.45L647.53,88.72L646.82,87.87L647.99,86.44L649.23,86.64L651.51,87.09L653.72,85.91L657.1,85.05L658.72,83.59L660.28,82.96L663.5,82.66L665.25,82.91L665.5,82.12L663.49,80.57L661.71,79.87L660.01,80.68L657.82,80.34L656.56,80.62L655.99,79.71L657.56,77.5L658.64,75.83L661.3,76.66L664.42,75.26L664.4,74.29L666.4,71.94L667.64,71.23L667.61,70L666.39,69.48L668.22,68.37L670.98,67.97L673.92,67.91L677.23,68.57L679.18,69.39L680.55,71.62L681.38,72.58L682.15,73.94L682.97,76.11L686.83,76.82L689.46,78.4L690.36,80.48L693.72,80.48L695.64,79.61L699.31,78.95L698.14,80.95L697.28,81.76L696.52,84.19L695.03,86.34L692.34,85.95L690.44,86.73L691.02,88.63L690.7,91.25L689.57,91.31L689.59,92.44L688.15,91.13L687.27,92.37L683.85,93.33L684.2,94.5L682.28,94.41L681.23,93.72L679.7,95.29L677.26,96.48L675.46,97.91L672.36,98.55L670.72,99.59L668.34,100.19L669.52,99.16L669.05,98.3L670.81,96.81L669.64,95.65L667.7,96.43L665.2,97.97L663.84,99.4L661.66,99.51L660.53,100.54L661.7,102.04L663.51,102.41L663.59,103.4L665.34,104.05L667.83,102.47L669.79,103.33L671.23,103.39L671.59,104.55L668.45,105.17L667.41,106.37L665.26,107.48L664.12,109.03L666.5,110.25L667.38,112.43L668.72,114.46L670.23,116.16L670.19,117.81L668.8,118.41L669.33,119.6L670.64,120.28L670.3,122.09L669.73,123.85L668.5,124.05L666.88,126.45L665.08,129.35L663.02,132L659.97,134.05L656.89,135.91L654.39,136.17L653.04,137.15L652.27,136.43L651.02,137.53L647.92,138.64L645.57,138.98L644.82,141.32L643.59,141.45L643.01,139.85L643.53,138.99L640.56,138.28L639.51,138.64L637.28,138.06L636.22,137.16L636.57,135.89L634.55,135.48L633.48,134.65L631.59,135.83L629.44,136.09L627.67,136.08L626.48,136.62L625.33,136.94L625.66,139.48L624.48,139.42L624.28,138.9L624.22,137.98L622.59,138.62L621.63,138.22L619.98,137.38L620.63,135.54L619.23,135.11L618.7,133.07L616.36,133.44L616.62,130.81L618.72,128.96L618.81,127.13L618.75,125.44L617.78,124.91L617.04,123.6L615.74,123.77L613.35,123.44L614.1,122.5L613.06,121.13L611.48,122.06L609.62,121.52L607.07,122.93L605.05,124.58L603.26,124.85L602.29,124.26L601.12,124.2L599.54,123.69L598.34,124.25L596.87,125.9L596.69,124.15L595.33,124.62L592.75,124.4L590.24,123.9L588.44,122.92L586.72,122.48L585.98,121.42L584.73,121.1L582.49,119.66L580.72,118.98L579.8,119.51L576.72,117.96L574.54,116.55L573.92,114.11L575.51,114.41L575.58,113.28L574.7,112.14L574.92,110.33L572.54,107.73L568.89,106.84L568.24,105.14L566.6,104.1L566.21,103.47L565.87,102.2L565.95,101.34L564.6,100.84L563.88,101.06L563.31,99.01L563.94,98.5L563.64,97.98L565.76,96.93L567.29,96.5L569.63,96.8L570.47,95.38L573.31,95.12L574.11,94.24L577.6,93.04L577.91,92.54Z" style="fill-opacity:0;stroke:white;stroke-opacity:0.5;stroke-width:0.45px;"/>
        <path d="M669.94,132.34L668.61,135.89L667.66,137.71L666.49,135.84L666.24,134.2L667.54,132.02L669.31,130.34L670.33,131L669.94,132.34Z" style="fill-opacity:0;fill-rule:nonzero;stroke:white;stroke-opacity:0.5;stroke-width:0.45px;"/>
        <path d="M502.86,93.62L503.49,93.7L505.01,95.04L505.99,95.19L506.37,94.63L507.7,93.74L508.86,94.9L509.99,96.48L511.02,96.58L511.7,97.18L509.88,97.36L509.49,99.08L509.11,99.85L508.3,100.37L508.36,101.47L507.81,101.58L506.42,100.42L507.19,99.32L506.53,98.67L505.7,98.84L503.09,100.47L503.04,98.93L502.04,98.57L501.1,97.97L501.73,97.26L500.55,96.5L500.99,95.95L500.15,95.56L499.69,94.98L500.23,94.62L501.88,95.26L503.08,95.39L503.38,95.13L502.29,93.93L502.86,93.62ZM502.29,100.54L500.76,100.24L499.65,99.22L499.29,98.38L499.75,98.32L500.41,98.92L501.39,98.91L501.38,99.25L502.29,100.54Z" style="fill-opacity:0;stroke:white;stroke-opacity:0.5;stroke-width:0.45px;"/>
        <path d="M488.57,90.13L488.84,89.87L490.71,90.25L493.97,90.61L496.99,91.67L497.38,92.08L498.73,91.74L500.79,92.2L501.47,93.11L502.86,93.62L502.29,93.93L503.38,95.13L503.08,95.39L501.88,95.26L500.23,94.62L499.69,94.98L496.61,95.33L494.47,94.24L492.11,94.34L492.44,93.4L491.89,91.88L490.61,91.07L489.38,90.81L488.57,90.13Z" style="fill-opacity:0;fill-rule:nonzero;stroke:white;stroke-opacity:0.5;stroke-width:0.45px;"/>
        <path d="M463.38,33.32L463.06,34.87L466.45,36.35L464.4,38.02L466.98,40.54L465.49,42.44L467.49,44.09L466.58,45.54L469.86,47.06L469.03,48.19L466.97,49.47L462.22,52.3L458.2,52.47L454.3,53.29L450.69,53.75L449.41,52.54L447.26,51.82L447.76,49.63L446.68,47.63L447.74,46.34L449.75,44.95L454.82,42.55L456.3,42.08L456.07,41.15L452.99,40.1L452.24,39.24L452.18,35.82L448.72,34.31L445.76,33.23L447.09,32.64L449.56,33.81L452.45,33.7L454.83,34.24L456.94,33.26L458.03,31.63L461.47,30.88L464.32,31.76L463.38,33.32Z" style="fill-opacity:0;fill-rule:nonzero;stroke:white;stroke-opacity:0.5;stroke-width:0.45px;"/>
        <path d="M714.51,99.56L712.46,101.79L712.5,104.08L711.66,105.85L712.05,106.96L710.89,108.52L708.06,109.57L704.17,109.7L701.01,112.23L699.52,111.38L699.43,109.72L695.57,110.21L692.95,111.26L690.35,111.3L692.6,112.93L691.12,116.7L689.69,117.63L688.62,116.77L689.16,114.77L687.76,114.13L686.86,112.61L688.95,111.92L690.11,110.53L692.34,109.38L693.97,107.87L698.38,107.21L700.75,107.66L703.07,103.72L704.55,104.78L707.8,102.56L709.06,101.7L710.45,98.99L710.07,96.5L711.01,95.1L713.37,94.69L714.58,97.77L714.51,99.56ZM720.56,88.97L722.13,88.03L722.62,90.52L719.33,91.12L717.39,93.32L713.91,91.81L712.7,94.23L710.23,94.27L709.93,92.06L711.03,90.36L713.39,90.23L714.04,87.17L714.69,85.44L717.3,87.75L719,88.49L720.56,88.97ZM693.42,112.24L694.65,110.91L695.91,111.17L696.82,110.24L698.45,110.72L698.73,111.48L697.48,112.82L696.57,112.11L695.44,112.62L694.85,113.92L693.4,113.29L693.42,112.24Z" style="fill-opacity:0;stroke:white;stroke-opacity:0.5;stroke-width:0.45px;"/>
        <path d="M515.27,144.3L517,147.95L517.72,149.5L516.12,150.1L515.69,151.08L515.64,151.84L513.43,152.77L509.89,153.81L507.91,155.37L506.93,155.5L506.26,155.36L504.97,156.28L503.56,156.71L501.7,156.83L501.14,156.95L500.65,157.54L500.07,157.7L499.73,158.26L498.63,158.21L497.92,158.51L496.39,158.4L495.81,157.11L495.87,155.9L495.51,155.24L495.08,153.6L494.44,152.69L494.88,152.58L494.66,151.57L494.93,151.14L494.83,150.18L495.8,149.47L495.57,148.53L496.16,147.44L497.07,148.02L497.67,147.82L500.23,147.77L500.64,147.99L502.78,148.21L503.63,148.1L504.18,148.84L505.22,148.47L506.81,146.14L508.88,145.15L515.27,144.3Z" style="fill-opacity:0;fill-rule:nonzero;stroke:white;stroke-opacity:0.5;stroke-width:0.45px;"/>
        <path d="M477.49,121.34L479.95,121.69L480.91,121.01L481.44,120.21L483.13,119.91L483.5,119.16L484.23,118.79L482.02,116.57L486.46,115.46L486.88,115.12L489.55,115.72L492.86,117.28L499.11,121.73L503.23,121.91L505.2,122.12L505.75,123.18L507.32,123.12L508.19,125.03L509.28,125.54L509.66,126.32L511.17,127.25L511.31,128.17L511.08,128.9L511.37,129.65L512,130.27L512.3,131L512.63,131.54L513.3,131.98L513.91,131.82L514.33,132.67L514.42,133.18L515.27,135.43L521.93,136.55L522.38,136.08L523.39,137.65L521.92,142.08L515.27,144.3L508.88,145.15L506.81,146.14L505.22,148.47L504.18,148.84L503.63,148.1L502.78,148.21L500.64,147.99L500.23,147.77L497.67,147.82L497.07,148.02L496.16,147.44L495.57,148.53L495.8,149.47L494.83,150.18L494.54,149.23L493.87,148.56L493.7,147.68L492.56,146.88L491.37,145.02L490.75,143.22L489.22,141.69L488.23,141.33L486.76,139.22L486.5,137.68L486.6,136.36L485.33,133.9L484.29,133.04L483.09,132.58L482.36,131.31L482.48,130.81L481.87,129.66L481.22,129.17L480.35,127.52L479,125.73L477.87,124.21L476.77,124.22L477.11,123L477.21,122.22L477.49,121.34Z" style="fill-opacity:0;fill-rule:nonzero;stroke:white;stroke-opacity:0.5;stroke-width:0.45px;"/>
        <path d="M472.56,108.52L472.71,108.51L473.03,107.97L474.63,108L476.64,107.34L475.15,108.29L475.31,108.7L475.07,108.62L474.65,108.79L474.32,108.74L474.2,108.83L474.16,108.61L474,108.47L473.57,108.45L472.97,108.64L472.56,108.52Z" style="fill-opacity:0;fill-rule:nonzero;stroke:white;stroke-opacity:0.5;stroke-width:0.45px;"/>
        <path d="M472.56,108.52L472.97,108.64L473.57,108.45L474,108.47L474.16,108.61L474.2,108.83L474.32,108.74L474.65,108.79L475.07,108.62L475.31,108.7L475.38,108.88L473.11,109.78L472.02,109.49L471.5,108.6L472.56,108.52Z" style="fill-opacity:0;fill-rule:nonzero;stroke:white;stroke-opacity:0.5;stroke-width:0.45px;"/>
    </g>
</svg>
